# xmcd
#
# Track frame offsets: 
#        150
#        23240
#        45887
#        65000
#        89087
#        119597
#        139352
#        160595
#        186232
#        208835
#        228527
#        247420
#        269810
#        296877
#        321642
#
# Disc length: 4591 seconds
#
# Revision: 0
# Processed by: cddbd v1.5.2PL0 Copyright (c) Steve Scherf et al.
# Submitted via: ExactAudioCopyFreeDBPlugin 1.0
#
DISCID=fd11ed0f
DTITLE=ray goodman and brown - Intimate moments
DYEAR=2002
DGENRE=Blues
TTITLE0=STAY
TTITLE1=ROCKIN YOU TONIGHT
TTITLE2=GIVE ME YOUR LOVE
TTITLE3=GIRL I WANT TO BE THE ONE
TTITLE4=SOMEONE'S MISSING YOU TONIGHT
TTITLE5=THIS IS THE LAST TIME
TTITLE6=I'VE BEEN GOOD TO YOU
TTITLE7=LONG GONE
TTITLE8=MY SHINING STAR
TTITLE9=DEEPER AND DEEPER
TTITLE10=GIRLS
TTITLE11=WHEN THE PARTY IS OVER
TTITLE12=DRIVE ME CRAZY
TTITLE13=ANY KIND OF LOVE
TTITLE14=WE FALL DOWN
EXTD=
EXTT0=
EXTT1=
EXTT2=
EXTT3=
EXTT4=
EXTT5=
EXTT6=
EXTT7=
EXTT8=
EXTT9=
EXTT10=
EXTT11=
EXTT12=
EXTT13=
EXTT14=
PLAYORDER=
